<svg version="1.1" id="Layer_1" xmlns="http://www.w3.org/2000/svg" xmlns:xlink="http://www.w3.org/1999/xlink" x="0px" y="0px"
	 width="100%" viewBox="0 0 225 225" enable-background="new 0 0 225 225" xml:space="preserve">
<path fill="#016FC8" opacity="1.000000" stroke="none" 
	d="
M1.000000,225.000000 
	C1.000000,150.406296 1.000000,75.812576 1.000000,1.000000 
	C75.354088,1.000000 149.708389,1.000000 224.531158,1.468657 
	C224.999512,73.897728 225.000671,145.858139 224.997375,217.818558 
	C224.997055,224.989426 224.984512,225.003540 217.880768,225.003708 
	C145.587173,225.005310 73.293587,225.001953 1.000000,225.000000 
M150.043701,43.729237 
	C148.428268,43.729237 146.812836,43.729237 144.873550,43.729237 
	C144.873550,45.876644 144.873566,47.690319 144.873566,49.503998 
	C144.873581,80.132385 144.790665,110.761261 144.970352,141.388596 
	C144.994980,145.586670 143.664810,148.365311 140.759048,151.336594 
	C130.362946,161.967117 120.337524,172.960175 110.604439,183.354156 
	C112.154510,182.991119 115.917915,183.243011 117.799736,181.483047 
	C129.095352,170.918823 139.958633,159.892334 151.403336,148.313583 
	C151.601028,147.010132 151.970001,145.706863 151.971344,144.403214 
	C152.003876,112.594925 152.017349,80.786537 151.943237,48.978382 
	C151.939194,47.242229 151.145844,45.507915 150.043701,43.729237 
M99.766197,138.372910 
	C103.021439,137.184326 106.276688,135.995743 109.413269,134.850479 
	C112.226814,142.239182 118.150330,137.204041 122.662613,138.996262 
	C122.662613,122.813957 122.876068,107.395447 122.539642,91.988945 
	C122.430992,87.013588 119.824577,82.432838 115.110191,80.277122 
	C102.926720,74.706070 90.641808,76.979660 78.144653,79.925110 
	C78.921677,84.181396 79.560837,87.682556 80.202965,91.199959 
	C85.580894,90.672806 90.386124,89.824211 95.193764,89.810310 
	C104.761032,89.782646 109.296188,89.649269 107.535217,100.943306 
	C102.346985,100.943306 97.055725,100.800766 91.775162,100.977768 
	C84.441612,101.223595 80.006348,104.625992 77.648544,111.444283 
	C71.351204,129.654938 80.331070,141.102753 99.766197,138.372910 
z"/>
<path fill="#3487CF" opacity="1.000000" stroke="none" 
	d="
M1.000000,225.500000 
	C73.293587,225.001953 145.587173,225.005310 217.880768,225.003708 
	C224.984512,225.003540 224.997055,224.989426 224.997375,217.818558 
	C225.000671,145.858139 224.999512,73.897728 224.999817,1.468658 
	C225.333328,2.497971 225.957321,3.995752 225.958298,5.493938 
	C226.005936,78.912514 226.000000,152.331146 226.000000,226.000000 
	C151.000183,226.000000 76.000092,226.000000 1.000000,225.500000 
z"/>
<path fill="#FAFDFD" opacity="1.000000" stroke="none" 
	d="
M99.379883,138.514282 
	C80.331070,141.102753 71.351204,129.654938 77.648544,111.444283 
	C80.006348,104.625992 84.441612,101.223595 91.775162,100.977768 
	C97.055725,100.800766 102.346985,100.943306 107.535217,100.943306 
	C109.296188,89.649269 104.761032,89.782646 95.193764,89.810310 
	C90.386124,89.824211 85.580894,90.672806 80.202965,91.199959 
	C79.560837,87.682556 78.921677,84.181396 78.144653,79.925110 
	C90.641808,76.979660 102.926720,74.706070 115.110191,80.277122 
	C119.824577,82.432838 122.430992,87.013588 122.539642,91.988945 
	C122.876068,107.395447 122.662613,122.813957 122.662613,138.996262 
	C118.150330,137.204041 112.226814,142.239182 109.413269,134.850479 
	C106.276688,135.995743 103.021439,137.184326 99.379883,138.514282 
M108.044998,115.680183 
	C107.461845,114.540474 106.905251,112.433502 106.291267,112.416641 
	C102.022560,112.299446 97.700470,112.336922 93.490189,112.962265 
	C92.212868,113.151985 90.248299,115.396996 90.305733,116.620476 
	C90.468964,120.097588 90.528999,124.400055 92.545776,126.690239 
	C93.964539,128.301331 98.559700,127.522331 101.660538,127.160027 
	C108.059517,126.412369 108.605469,121.752800 108.044998,115.680183 
z"/>
<path fill="#EEF6F9" opacity="1.000000" stroke="none" 
	d="
M150.966766,149.020737 
	C139.958633,159.892334 129.095352,170.918823 117.799736,181.483047 
	C115.917915,183.243011 112.154510,182.991119 110.604439,183.354156 
	C120.337524,172.960175 130.362946,161.967117 140.759048,151.336594 
	C143.664810,148.365311 144.994980,145.586670 144.970352,141.388596 
	C144.790665,110.761261 144.873581,80.132385 144.873566,49.503998 
	C144.873566,47.690319 144.873550,45.876644 144.873550,43.729237 
	C146.812836,43.729237 148.428268,43.729237 150.386902,44.249222 
	C150.721893,67.054581 150.682663,89.340004 150.717590,111.625320 
	C150.737137,124.090553 150.879669,136.555603 150.966766,149.020737 
z"/>
<path fill="#0066BF" opacity="1.000000" stroke="none" 
	d="
M151.185059,148.667160 
	C150.879669,136.555603 150.737137,124.090553 150.717590,111.625320 
	C150.682663,89.340004 150.721893,67.054581 150.725006,44.270973 
	C151.145844,45.507915 151.939194,47.242229 151.943237,48.978382 
	C152.017349,80.786537 152.003876,112.594925 151.971344,144.403214 
	C151.970001,145.706863 151.601028,147.010132 151.185059,148.667160 
z"/>
<path fill="#0A72C7" opacity="1.000000" stroke="none" 
	d="
M108.045395,116.138596 
	C108.605469,121.752800 108.059517,126.412369 101.660538,127.160027 
	C98.559700,127.522331 93.964539,128.301331 92.545776,126.690239 
	C90.528999,124.400055 90.468964,120.097588 90.305733,116.620476 
	C90.248299,115.396996 92.212868,113.151985 93.490189,112.962265 
	C97.700470,112.336922 102.022560,112.299446 106.291267,112.416641 
	C106.905251,112.433502 107.461845,114.540474 108.045395,116.138596 
z"/>
</svg>